<svg xmlns="http://www.w3.org/2000/svg" width="34" height="34" viewBox="0 0 34 34">
  <g id="Notification" transform="translate(0 0.232)">
    <path id="photo_profile" d="M17,0A17,17,0,1,1,0,17,17,17,0,0,1,17,0Z" transform="translate(0 -0.232)" fill="#ecf0f6"/>
    <g id="Query" transform="translate(-2517.933 194.843)">
      <path id="Subtraction_1" data-name="Subtraction 1" d="M8.543,19.315H4.921a.588.588,0,0,1-.434-.168.6.6,0,0,1-.17-.434V15.09a.59.59,0,0,1,.17-.434.6.6,0,0,1,.434-.17H8.543a.581.581,0,0,1,.6.6v3.623a.6.6,0,0,1-.17.434A.59.59,0,0,1,8.543,19.315Zm0-6.036H4.921a.579.579,0,0,1-.6-.6V12a3.506,3.506,0,0,1,.99-2.367A6.5,6.5,0,0,1,7.487,8a3.808,3.808,0,0,0,1.281-.847A1.7,1.7,0,0,0,9.147,6,1.379,1.379,0,0,0,8.44,4.886a2.782,2.782,0,0,0-1.614-.491A2.757,2.757,0,0,0,5.2,4.847,9.483,9.483,0,0,0,3.582,6.582a.556.556,0,0,1-.471.227.547.547,0,0,1-.36-.113L.262,4.81a.541.541,0,0,1-.151-.792A7.734,7.734,0,0,1,7.109,0a7.177,7.177,0,0,1,3.207.774,7.161,7.161,0,0,1,2.613,2.188,5.085,5.085,0,0,1,1.047,3.074,4.778,4.778,0,0,1-.236,1.529,4.961,4.961,0,0,1-.528,1.141,4.361,4.361,0,0,1-.84.9,7.7,7.7,0,0,1-.868.661c-.234.144-.553.33-.923.537a3.17,3.17,0,0,0-1.027.934,1.8,1.8,0,0,0-.406.932.581.581,0,0,1-.6.6Z" transform="translate(2527.945 -187.733)" fill="#003f9a"/>
    </g>
  </g>
</svg>
